# File created by Blade
# Date/Time:  Thu Sep 25 15:31:15 2014
# Frame Rate: 120.000 fps
#------------------------------------------------------
:FULLY-SPECIFIED
:DEGREES
394
root 28.920778 32.299044 -2.538301 156.409300 -73.791243 -124.513747
Spine 36.093169 14.107061 7.218363
Head -44.405273 -0.239035 4.896402
LeftShoulder 15.024692 -6.754155 22.369408
LeftArm 66.662407 -10.600413 -33.592320
LeftForeArm 8.638939 -0.000000 18.184801
LeftHand -25.372997 -0.000000 0.319287
LeftHandThumb1 -26.253704 0.000000 33.147579
RightShoulder 10.505067 37.887876 -23.772452
RightArm 44.992937 -9.662873 52.126609
RightForeArm -27.656618 -0.000000 17.537123
RightHand -3.365395 0.000000 4.963645
RightHandThumb1 -24.326973 -0.000000 -32.862282
LeftUpLeg -69.413357 13.251954 -1.005197
LeftLeg 12.735863 -0.000000 -0.000000
LeftFoot 37.029306 26.591082 -13.854872
LeftToeBase 14.139196 -0.000000 -0.000000
RightUpLeg -29.103113 0.247290 23.582108
RightLeg 3.190903 -0.000000 -0.000000
RightFoot -8.222032 -8.580655 -10.859019
RightToeBase -1.165961 -0.000000 0.000000
395
root 28.824792 32.307238 -2.544367 156.565829 -73.901918 -124.466531
Spine 36.074164 14.098473 7.094792
Head -44.456308 -0.298230 4.859381
LeftShoulder 14.952839 -6.899257 22.468565
LeftArm 66.730366 -10.850473 -33.547162
LeftForeArm 8.712027 -0.000000 18.141143
LeftHand -25.346551 -0.000000 -0.059941
LeftHandThumb1 -26.253704 0.000000 33.147579
RightShoulder 10.446117 38.679765 -23.993835
RightArm 44.404912 -9.790753 52.512942
RightForeArm -27.806901 -0.000000 17.640147
RightHand -3.452738 -0.000000 4.767970
RightHandThumb1 -24.326973 -0.000000 -32.862282
LeftUpLeg -69.581758 13.057533 -1.018082
LeftLeg 12.812421 -0.000000 -0.000000
LeftFoot 36.902641 26.569471 -14.045099
LeftToeBase 14.055329 -0.000000 -0.000000
RightUpLeg -29.159367 0.185453 23.516886
RightLeg 3.199075 -0.000000 -0.000000
RightFoot -8.350966 -8.573011 -10.805577
RightToeBase -1.154525 -0.000000 0.000000
396
root 28.728727 32.314208 -2.549922 156.755252 -74.006153 -124.387784
Spine 35.950450 14.105554 6.943390
Head -44.422695 -0.300478 4.953752
LeftShoulder 14.842187 -7.061087 22.564408
LeftArm 66.837346 -10.979570 -33.495788
LeftForeArm 8.620384 -0.000000 18.094902
LeftHand -25.468648 -0.000000 0.226198
LeftHandThumb1 -26.253704 0.000000 33.147579
RightShoulder 10.309007 38.874932 -24.236580
RightArm 44.361113 -9.686038 52.635027
RightForeArm -27.791920 0.000000 17.718785
RightHand -3.437625 -0.000000 4.571869
RightHandThumb1 -24.326973 -0.000000 -32.862282
LeftUpLeg -69.837363 12.873207 -1.066856
LeftLeg 12.925708 -0.000000 -0.000000
LeftFoot 36.833310 26.491764 -14.118075
LeftToeBase 13.452726 -0.000000 -0.000000
RightUpLeg -29.275996 0.183011 23.443414
RightLeg 3.219220 -0.000000 -0.000000
RightFoot -8.486132 -8.610625 -10.752553
RightToeBase -1.171372 -0.000000 0.000000
397
root 28.627034 32.319893 -2.556377 156.963762 -74.079038 -124.389249
Spine 35.874029 14.141155 6.791406
Head -44.338812 -0.308572 5.013894
LeftShoulder 14.810949 -7.220822 22.748059
LeftArm 66.807408 -11.240926 -33.651181
LeftForeArm 8.780345 0.000000 18.148362
LeftHand -25.441909 -0.000000 0.071715
LeftHandThumb1 -26.253704 0.000000 33.147579
RightShoulder 10.264788 39.038360 -24.389590
RightArm 44.331531 -9.565150 52.634816
RightForeArm -27.730707 -0.000000 17.789209
RightHand -3.446799 -0.000000 4.501143
RightHandThumb1 -24.326973 -0.000000 -32.862282
LeftUpLeg -70.032184 12.740025 -1.112771
LeftLeg 13.072774 -0.000000 -0.000000
LeftFoot 36.632914 26.480756 -14.376094
LeftToeBase 12.910690 -0.000000 -0.000000
RightUpLeg -29.309531 0.187851 23.361878
RightLeg 3.204617 -0.000000 -0.000000
RightFoot -8.606559 -8.653165 -10.726074
RightToeBase -1.191420 -0.000000 0.000000
398
root 28.520566 32.325101 -2.561256 157.066931 -74.161200 -124.289746
Spine 35.809605 14.120132 6.687702
Head -44.254390 -0.303796 4.994922
LeftShoulder 14.728877 -7.347686 22.850417
LeftArm 66.872208 -11.468184 -33.673706
LeftForeArm 8.695648 -0.000000 18.067398
LeftHand -25.443895 -0.000000 -0.071915
LeftHandThumb1 -26.253704 0.000000 33.147579
RightShoulder 10.177319 39.134364 -24.581235
RightArm 44.438929 -9.448884 52.582889
RightForeArm -27.627975 0.000000 17.790483
RightHand -3.517683 -0.000000 4.394718
RightHandThumb1 -24.326973 -0.000000 -32.862282
LeftUpLeg -70.238578 12.636890 -1.241494
LeftLeg 13.227629 -0.000000 -0.000000
LeftFoot 36.451750 26.457027 -14.710923
LeftToeBase 12.551420 -0.000000 -0.000000
RightUpLeg -29.340043 0.161506 23.303250
RightLeg 3.237166 -0.000000 -0.000000
RightFoot -8.776431 -8.658288 -10.598228
RightToeBase -1.164532 -0.000000 0.000000
399
root 28.408631 32.331088 -2.566591 157.387775 -74.240396 -124.392628
Spine 35.700146 14.144376 6.484727
Head -44.178646 -0.299200 5.079855
LeftShoulder 14.649575 -7.402782 22.986324
LeftArm 66.908651 -11.729900 -33.657079
LeftForeArm 8.651385 0.000000 18.073414
LeftHand -25.404843 -0.000000 -0.233550
LeftHandThumb1 -26.253704 0.000000 33.147579
RightShoulder 10.109590 39.292941 -24.732063
RightArm 44.472582 -9.387308 52.589459
RightForeArm -27.683116 -0.000000 17.775419
RightHand -3.541780 -0.000000 4.111212
RightHandThumb1 -24.326973 -0.000000 -32.862282
LeftUpLeg -70.440637 12.532752 -1.395992
LeftLeg 13.374517 -0.000000 -0.000000
LeftFoot 36.384578 26.365949 -14.733276
LeftToeBase 12.206310 -0.000000 -0.000000
RightUpLeg -29.377418 0.164077 23.191756
RightLeg 3.241578 -0.000000 -0.000000
RightFoot -8.926212 -8.668039 -10.567748
RightToeBase -1.135817 -0.000000 0.000000
